<svg xmlns="http://www.w3.org/2000/svg" viewBox="0 -0.5 32 32" shape-rendering="crispEdges">
<metadata>Made with Pixels to Svg https://codepen.io/shshaw/pen/XbxvNj</metadata>
<path stroke="#7b786f" d="M15 0h6M14 1h1M21 1h1M13 2h1M22 2h2M12 3h1M23 3h1M11 4h1M24 4h1M4 5h4M11 5h1M24 5h1M3 6h1M8 6h1M10 6h1M24 6h1M2 7h1M9 7h1M25 7h1M2 8h1M9 8h1M25 8h1M1 9h1M9 9h1M25 9h1M1 10h1M25 10h1M1 11h1M26 11h1M1 12h1M26 12h1M1 13h1M27 13h2M1 14h1M29 14h1M1 15h1M30 15h1M1 16h1M30 16h1M0 17h1M31 17h1M0 18h1M31 18h1M0 19h1M31 19h1M0 20h1M31 20h1M0 21h1M31 21h1M0 22h1M31 22h1M0 23h1M31 23h1M0 24h1M31 24h1M0 25h1M31 25h1M0 26h2M31 26h1M0 27h2M31 27h1M0 28h2M31 28h1M0 29h3M31 29h1M1 30h3M30 30h1M2 31h28" />
<path stroke="#9b978b" d="M15 1h6M14 2h2M21 2h1M13 3h2M22 3h1M12 4h3M23 4h1M12 5h3M23 5h1M4 6h4M11 6h3M23 6h1M3 7h2M8 7h1M10 7h3M24 7h1M3 8h2M8 8h1M10 8h3M24 8h1M2 9h3M8 9h1M10 9h3M24 9h1M2 10h3M9 10h4M24 10h1M2 11h2M10 11h3M25 11h1M2 12h2M10 12h4M25 12h1M2 13h2M11 13h4M25 13h2M2 14h1M12 14h4M24 14h5M2 15h1M14 15h3M23 15h2M29 15h1M2 16h1M29 16h1M1 17h2M30 17h1M1 18h2M30 18h1M1 19h1M30 19h1M1 20h1M30 20h1M1 21h1M30 21h1M1 22h2M30 22h1M1 23h2M30 23h1M1 24h3M30 24h1M1 25h3M30 25h1M2 26h3M12 26h1M30 26h1M2 27h4M12 27h2M29 27h2M2 28h5M12 28h3M28 28h3M3 29h6M11 29h6M25 29h6M4 30h26" />
<path stroke="#aeaba0" d="M16 2h1M20 2h1M15 3h1M15 4h1M14 6h1M5 7h1M7 7h1M13 7h2M5 8h1M13 8h2M5 9h1M13 9h2M13 10h2M4 11h1M9 11h1M13 11h2M24 11h1M14 12h2M24 12h1M15 13h1M24 13h1M3 14h1M16 14h1M23 14h1M3 15h1M17 15h1M21 15h2M28 15h1M3 16h1M20 16h3M3 17h1M18 17h1M20 17h1M3 18h1M16 18h2M19 18h1M2 19h2M15 19h1M18 19h1M20 19h1M22 19h1M2 20h2M14 20h1M16 20h2M21 20h1M23 20h1M2 21h3M15 21h1M18 21h1M22 21h1M3 22h3M17 22h1M21 22h1M3 23h5M16 23h1M18 23h1M4 24h9M16 24h1M18 24h1M4 25h10M19 25h1M5 26h7M13 26h2M29 26h1M6 27h6M14 27h5M28 27h1M7 28h5M15 28h13M9 29h2M17 29h8" />
<path stroke="#bebaac" d="M17 2h3M16 3h2M20 3h2M16 4h1M22 4h1M15 5h2M22 5h1M15 6h2M22 6h1M6 7h1M15 7h3M23 7h1M6 8h2M15 8h3M23 8h1M6 9h2M15 9h4M22 9h2M5 10h1M8 10h1M15 10h9M5 11h1M8 11h1M15 11h9M4 12h2M8 12h2M16 12h8M4 13h2M9 13h2M16 13h8M4 14h2M9 14h3M17 14h6M4 15h1M10 15h4M18 15h3M25 15h3M4 16h1M12 16h8M23 16h6M4 17h1M21 17h4M27 17h3M4 18h1M22 18h3M28 18h2M4 19h1M24 19h1M28 19h2M4 20h2M8 20h3M19 20h2M29 20h1M5 21h9M19 21h3M29 21h1M6 22h9M19 22h2M29 22h1M8 23h7M20 23h1M29 23h1M13 24h2M21 24h1M29 24h1M14 25h4M21 25h1M29 25h1M15 26h8M28 26h1M19 27h9" />
<path stroke="#d0cdc2" d="M18 3h2M17 4h5M17 5h5M17 6h5M18 7h5M18 8h5M19 9h3M6 10h2M6 11h2M6 12h2M6 13h3M6 14h3M5 15h5M5 16h7M5 17h11M19 17h1M25 17h2M5 18h8M14 18h1M18 18h1M20 18h2M25 18h3M5 19h9M16 19h2M19 19h1M21 19h1M23 19h1M25 19h3M6 20h2M11 20h2M15 20h1M18 20h1M22 20h1M25 20h4M14 21h1M16 21h2M24 21h5M15 22h2M18 22h1M23 22h1M25 22h4M15 23h1M17 23h1M19 23h1M21 23h8M15 24h1M17 24h1M19 24h2M22 24h7M18 25h1M20 25h1M22 25h7M23 26h5" />
<path stroke="#dfddd3" d="M16 17h2M13 18h1M15 18h1M14 19h1M13 20h1M24 20h1M23 21h1M22 22h1M24 22h1" />
</svg>