<svg xmlns="http://www.w3.org/2000/svg" viewBox="0 -0.5 32 32" shape-rendering="crispEdges">
<metadata>Made with Pixels to Svg https://codepen.io/shshaw/pen/XbxvNj</metadata>
<path stroke="#d99194" d="M11 1h3M8 2h3M14 2h6M7 3h1M11 3h1M20 3h5M6 4h1M8 4h9M24 4h3M8 5h3M17 5h3M26 5h2M9 6h1M19 6h3M27 6h2M4 7h2M13 7h1M21 7h4M28 7h1M3 8h5M13 8h2M17 8h1M23 8h2M27 8h1M4 9h4M10 9h2M17 9h2M22 9h2M25 9h2M4 10h4M11 10h2M23 10h3M6 11h3M14 11h1M23 11h2M11 12h1M15 12h1M18 12h2M23 12h2M4 13h1M9 13h1M12 13h1M15 13h1M19 13h2M23 13h1M4 14h2M8 14h1M21 14h1M23 14h3M5 15h2M16 15h1M23 15h1M26 15h1M5 16h3M10 16h2M16 16h2M22 16h3M27 16h1M5 17h2M10 17h3M17 17h2M22 17h4M28 17h1M5 18h1M9 18h5M17 18h2M21 18h5M29 18h1M8 19h6M17 19h2M21 19h1M23 19h4M28 19h1M10 20h4M20 20h2M23 20h1M25 20h2M28 20h1M6 21h1M18 21h8M27 21h1M7 22h1M19 22h3M24 22h2M27 22h1M8 23h2M14 23h3M20 23h3M24 23h3M10 24h8M20 24h3M25 24h2M22 25h2" />
<path stroke="#e5adaf" d="M11 2h3M8 3h3M12 3h8M7 4h1M17 4h7M20 5h6M5 6h1M12 6h5M22 6h5M6 7h2M11 7h1M14 7h2M17 7h2M25 7h3M10 8h2M15 8h1M18 8h2M22 8h1M25 8h2M12 9h1M19 9h1M24 9h1M14 10h2M20 10h1M16 11h1M18 11h4M4 12h2M12 12h2M16 12h1M20 12h2M5 13h2M8 13h1M21 13h1M6 14h1M11 14h1M16 14h1M10 15h4M17 15h2M24 15h2M12 16h2M18 16h3M25 16h2M13 17h2M19 17h1M26 17h2M14 18h1M19 18h1M26 18h3M14 19h1M27 19h1M14 20h1M24 20h1M27 20h1M26 21h1M26 22h1M17 23h1" />
<path stroke="#c38b8d" d="M6 5h2M11 5h1M4 6h1M8 6h1M10 6h1M3 7h1M9 7h1M20 7h1M2 8h1M8 8h1M21 8h1M3 9h1M8 9h1M16 9h1M3 10h1M8 10h1M10 10h1M17 10h1M22 10h1M5 11h1M9 11h1M3 12h1M9 12h1M3 13h1M7 13h1M10 13h1M14 13h1M17 13h2M3 14h1M9 14h1M19 14h2M4 15h1M7 15h2M15 15h1M22 15h1M4 16h1M9 16h1M15 16h1M4 17h1M7 17h1M9 17h1M16 17h1M21 17h1M4 18h1M6 18h1M8 18h1M16 18h1M5 19h1M7 19h1M16 19h1M20 19h1M22 19h1M5 20h2M8 20h2M16 20h1M19 20h1M22 20h1M5 21h1M7 21h1M10 21h4M17 21h1M6 22h1M8 22h2M14 22h3M18 22h1M23 22h1M6 23h2M10 23h4M19 23h1M7 24h3M19 24h1M24 24h1M7 25h1M10 25h8M19 25h3M25 25h1M22 26h3" />
<path stroke="#8d5d60" d="M12 5h5M11 6h1M17 6h2M10 7h1M12 7h1M16 7h1M19 7h1M9 8h1M12 8h1M16 8h1M20 8h1M28 8h1M2 9h1M9 9h1M13 9h3M20 9h2M27 9h2M2 10h1M9 10h1M13 10h1M16 10h1M18 10h2M21 10h1M26 10h3M2 11h1M10 11h4M15 11h1M17 11h1M22 11h1M26 11h3M2 12h1M10 12h1M14 12h1M17 12h1M22 12h1M26 12h3M2 13h1M11 13h1M13 13h1M16 13h1M22 13h1M26 13h2M2 14h1M10 14h1M12 14h4M17 14h2M22 14h1M3 15h1M9 15h1M14 15h1M19 15h3M3 16h1M8 16h1M14 16h1M21 16h1M3 17h1M8 17h1M15 17h1M20 17h1M3 18h1M7 18h1M15 18h1M20 18h1M4 19h1M6 19h1M15 19h1M19 19h1M29 19h1M4 20h1M7 20h1M15 20h1M17 20h2M29 20h1M4 21h1M8 21h2M14 21h3M28 21h2M5 22h1M10 22h4M28 22h2M5 23h1M27 23h3M6 24h1M27 24h2M6 25h1M8 25h2M18 25h1M26 25h3M7 26h2M10 26h12M25 26h3M7 27h1M10 27h17M22 28h3" />
<path stroke="#b37377" d="M6 6h2M8 7h1M3 11h2M6 12h3M7 14h1M17 22h1M22 22h1M18 23h1M23 23h1M18 24h1M23 24h1M24 25h1" />
<path stroke="#69595a" d="M25 11h1M25 12h1M24 13h2M26 14h1M2 15h1M2 16h1M2 17h1M3 19h1M3 20h1M4 22h1M4 23h1M4 24h2M5 25h1M5 26h2M9 26h1M6 27h1M8 27h2M27 27h1M7 28h1M10 28h12M25 28h2M22 29h3" />
</svg>