<svg xmlns="http://www.w3.org/2000/svg" viewBox="0 -0.5 23 23" shape-rendering="crispEdges">
<metadata>Made with Pixels to Svg https://codepen.io/shshaw/pen/XbxvNj</metadata>
<path stroke="#d9d9d9" d="M19 0h1M18 1h1M20 1h1M18 2h1M21 2h1M17 3h1M21 3h2M17 4h2M20 4h1M15 5h5M14 6h1M17 6h1M13 7h1M16 7h1M13 8h1M15 8h1M14 9h1" />
<path stroke="#efefef" d="M19 1h1M19 2h2M18 3h3M19 4h1M15 6h2M14 7h2M14 8h1" />
<path stroke="#b9b9b9" d="M17 2h1M16 3h1M16 4h1M21 4h1M20 5h1M18 6h2M17 7h1M16 8h1M15 9h1" />
<path stroke="#366da8" d="M12 8h1M11 9h1M10 10h1M13 10h1M9 11h1M12 11h1M8 12h1M11 12h1M7 13h1M10 13h1M6 14h1M9 14h1M5 15h1M8 15h1M4 16h1M7 16h1M3 17h1M6 17h1M2 18h1M5 18h1M3 19h2" />
<path stroke="#3a76b6" d="M12 9h2M12 10h1M11 11h1M10 12h1M9 13h1M8 14h1M7 15h1M5 16h2M4 17h2M3 18h2" />
<path stroke="#4381c3" d="M11 10h1M10 11h1M9 12h1M8 13h1M7 14h1M6 15h1" />
<path stroke="#325f90" d="M14 10h1M13 11h1M12 12h1M11 13h1M10 14h1M9 15h1M8 16h1M7 17h1M6 18h1M5 19h1M4 20h1" />
<path stroke="#9e4320" d="M0 18h1M0 19h1M1 20h1M2 21h1M4 21h1M3 22h2" />
<path stroke="#b5491f" d="M1 18h1M2 19h1M3 20h1M3 21h1" />
<path stroke="#cf5525" d="M1 19h1M2 20h1" />
</svg>