<svg xmlns="http://www.w3.org/2000/svg" viewBox="0 -0.5 23 23" shape-rendering="crispEdges">
<metadata>Made with Pixels to Svg https://codepen.io/shshaw/pen/XbxvNj</metadata>
<path stroke="#d9d9d9" d="M11 0h2M10 1h1M13 1h1M9 2h1M14 2h1M9 3h1M12 3h4M7 4h2M11 4h2M6 5h1M8 5h3M5 6h1M8 6h4M4 7h1M7 7h2M10 7h3M4 8h1M6 8h1M11 8h1M13 8h1M3 9h1M5 9h1M12 9h3M2 10h1M4 10h1M12 10h1M2 11h3M1 12h3M1 13h2M0 14h2M0 15h1M0 16h1" />
<path stroke="#efefef" d="M11 1h2M10 2h4M10 3h2M9 4h2M7 5h1M6 6h2M5 7h2M5 8h1M12 8h1M4 9h1M3 10h1" />
<path stroke="#b9b9b9" d="M13 4h2M11 5h3M12 6h1M9 7h1M7 8h4M6 9h2M10 9h2M5 10h2M11 10h1M13 10h1M5 11h1M11 11h2M4 12h1M3 13h1M2 14h1M1 15h1" />
<path stroke="#daa61a" d="M14 10h1M13 11h1M15 11h1M13 12h2M16 12h1M15 13h1M17 13h1M15 14h2M18 14h1M16 16h2M17 17h1M20 17h1M18 18h1M21 18h1M18 19h1M21 19h1M19 20h3" />
<path stroke="#b88d1c" d="M15 10h1M16 11h1M12 12h1M15 12h1M17 12h1M13 13h2M18 13h1M14 14h1M17 14h1M14 15h3M19 15h1M15 16h1M19 16h2M15 17h2M18 17h1M21 17h1M16 18h2M20 18h1M22 18h1M17 19h1M19 19h1M22 19h1M17 20h2M22 20h1M18 21h5M18 22h4" />
<path stroke="#e9b425" d="M14 11h1M16 13h1M17 15h2M18 16h1M19 17h1M19 18h1M20 19h1" />
</svg>