<svg xmlns="http://www.w3.org/2000/svg" viewBox="0 -0.5 40 40" shape-rendering="crispEdges">
<metadata>Made with Pixels to Svg https://codepen.io/shshaw/pen/XbxvNj</metadata>
<path stroke="rgba(255,255,255,0.12156862745098039)" d="M4 0h1M0 4h1M39 5h1M39 6h1M39 7h1M39 8h1M39 9h1M39 10h1M39 11h1M39 12h1M39 13h1M39 14h1M39 15h1M39 16h1M39 17h1M39 18h1M39 19h1M39 20h1M39 21h1M39 22h1M39 23h1M39 24h1M39 25h1M39 26h1M39 27h1M39 28h1M39 29h1M39 30h1M39 31h1M39 32h1M39 33h1M39 34h1M0 35h1M4 39h1" />
<path stroke="rgba(255,255,255,0.24705882352941178)" d="M5 0h30M0 5h1M0 6h1M0 7h1M0 8h1M0 9h1M0 10h1M0 11h1M0 12h1M0 13h1M0 14h1M0 15h1M0 16h1M0 17h1M0 18h1M0 19h1M0 20h1M0 21h1M0 22h1M0 23h1M0 24h1M0 25h1M0 26h1M0 27h1M0 28h1M0 29h1M0 30h1M0 31h1M0 32h1M0 33h1M0 34h1M5 39h30" />
<path stroke="rgba(255,255,255,0.09019607843137255)" d="M35 0h1M35 39h1" />
<path stroke="rgba(255,255,255,0.2627450980392157)" d="M2 1h1M1 2h1M1 37h1M2 38h1" />
<path stroke="rgba(254,254,254,0.8588235294117647)" d="M3 1h1M1 3h1M1 36h1M3 38h1" />
<path stroke="#fdfdfd" d="M4 1h32M2 2h1M2 3h16M1 4h3M1 5h1M3 5h1M38 5h1M1 6h1M3 6h1M38 6h1M1 7h1M3 7h1M38 7h1M1 8h1M3 8h1M38 8h1M1 9h1M3 9h1M38 9h1M1 10h1M3 10h1M38 10h1M1 11h1M3 11h1M38 11h1M1 12h1M3 12h1M38 12h1M1 13h1M3 13h1M38 13h1M1 14h1M3 14h1M38 14h1M1 15h1M3 15h1M38 15h1M1 16h1M3 16h1M38 16h1M1 17h1M3 17h1M38 17h1M1 18h1M3 18h1M38 18h1M1 19h1M3 19h1M36 19h1M38 19h1M1 20h1M3 20h1M36 20h1M38 20h1M1 21h1M3 21h1M36 21h1M38 21h1M1 22h1M36 22h1M38 22h1M1 23h1M36 23h1M38 23h1M1 24h1M36 24h1M38 24h1M1 25h1M36 25h1M38 25h1M1 26h1M36 26h1M38 26h1M1 27h1M36 27h1M38 27h1M1 28h1M36 28h1M38 28h1M1 29h1M36 29h1M38 29h1M1 30h1M36 30h1M38 30h1M1 31h1M36 31h1M38 31h1M1 32h1M36 32h1M38 32h1M1 33h1M36 33h1M38 33h1M1 34h1M36 34h1M38 34h1M1 35h1M36 35h1M18 36h20M4 38h32" />
<path stroke="rgba(254,254,254,0.796078431372549)" d="M36 1h1M36 38h1" />
<path stroke="rgba(255,255,255,0.2)" d="M37 1h1M37 38h1" />
<path stroke="#fefefe" d="M3 2h1M36 18h1M37 35h1" />
<path stroke="#ffffff" d="M4 2h33M18 3h20M36 4h2M36 5h2M36 6h2M36 7h2M36 8h2M36 9h2M36 10h2M36 11h2M36 12h2M36 13h2M36 14h2M36 15h2M36 16h2M36 17h2M37 18h1M37 19h1M37 20h1M37 21h1M37 22h1M37 23h1M37 24h1M37 25h1M37 26h1M37 27h1M37 28h1M37 29h1M37 30h1M37 31h1M37 32h1M37 33h1M37 34h1" />
<path stroke="rgba(255,255,255,0.9882352941176471)" d="M37 2h1" />
<path stroke="rgba(255,255,255,0.15294117647058825)" d="M38 2h1M38 37h1" />
<path stroke="rgba(254,254,254,0.7333333333333333)" d="M38 3h1M38 36h1" />
<path stroke="rgba(218,218,218,0.8431372549019608)" d="M4 4h1" />
<path stroke="rgba(134,134,134,0.6039215686274509)" d="M5 4h1M5 35h1" />
<path stroke="rgba(120,120,120,0.5764705882352941)" d="M6 4h28M35 6h1M35 7h1M35 8h1M35 9h1M35 10h1M35 11h1M35 12h1M35 13h1M35 14h1M35 15h1M35 16h1M35 17h1M35 18h1M35 19h1M35 20h1M35 21h1M35 22h1M35 23h1M35 24h1M35 25h1M35 26h1M35 27h1M35 28h1M35 29h1M35 30h1M35 31h1M35 32h1M35 33h1M6 35h28" />
<path stroke="rgba(139,139,139,0.611764705882353)" d="M34 4h1M35 5h1M35 34h1M34 35h1" />
<path stroke="rgba(232,232,232,0.8941176470588236)" d="M35 4h1" />
<path stroke="rgba(254,254,254,0.984313725490196)" d="M38 4h1M38 35h1M37 37h1" />
<path stroke="rgba(255,255,255,0.011764705882352941)" d="M39 4h1M39 35h1" />
<path stroke="#fafafa" d="M2 5h1" />
<path stroke="rgba(100,100,100,0.5411764705882353)" d="M4 5h1M4 34h1" />
<path stroke="rgba(0,0,0,0.4392156862745098)" d="M5 5h30M5 6h30M5 7h30M5 8h30M5 9h30M5 10h30M5 11h30M5 12h30M5 13h30M5 14h30M5 15h30M5 16h30M5 17h30M5 18h30M5 19h30M5 20h30M5 21h30M5 22h30M5 23h30M5 24h30M5 25h30M5 26h30M5 27h30M5 28h30M5 29h30M5 30h30M5 31h30M5 32h30M5 33h30M5 34h30" />
<path stroke="#f4f4f4" d="M2 6h1M2 7h1M2 8h1M3 23h1M3 24h1M3 25h1M14 36h3M35 37h1" />
<path stroke="rgba(75,75,75,0.5058823529411764)" d="M4 6h1M4 7h1M4 8h1M4 9h1M4 10h1M4 11h1M4 12h1M4 13h1M4 14h1M4 15h1M4 16h1M4 17h1M4 18h1M4 19h1M4 20h1M4 21h1M4 22h1M4 23h1M4 24h1M4 25h1M4 26h1M4 27h1M4 28h1M4 29h1M4 30h1M4 31h1M4 32h1M4 33h1" />
<path stroke="#f2f2f2" d="M2 9h1" />
<path stroke="#ebebeb" d="M2 10h1M2 11h1M2 12h1M3 27h1M3 28h1M3 29h1M10 36h3M31 37h3" />
<path stroke="#eaeaea" d="M2 13h1" />
<path stroke="#e2e2e2" d="M2 14h1M2 15h1M2 16h1M2 17h1M3 31h1M3 32h1M3 33h1M6 36h3M27 37h3" />
<path stroke="#d9d9d9" d="M2 18h1M2 19h1M2 20h1M2 21h1M2 22h1M2 23h1M2 24h1M2 25h1M2 26h1M2 27h1M2 28h1M2 29h1M2 30h1M2 31h1M2 32h1M2 33h1M2 34h1M2 35h2M2 36h1M4 36h1M22 37h4" />
<path stroke="#f6f6f6" d="M3 22h1M17 36h1" />
<path stroke="#ededed" d="M3 26h1M13 36h1" />
<path stroke="#e5e5e5" d="M3 30h1M9 36h1" />
<path stroke="#dddddd" d="M3 34h1M5 36h1" />
<path stroke="rgba(222,222,222,0.8509803921568627)" d="M4 35h1" />
<path stroke="rgba(235,235,235,0.9019607843137255)" d="M35 35h1" />
<path stroke="#c6c6c6" d="M3 36h1" />
<path stroke="#e6e6e6" d="M2 37h1" />
<path stroke="#d0d0d0" d="M3 37h19" />
<path stroke="#e1e1e1" d="M26 37h1" />
<path stroke="#e9e9e9" d="M30 37h1" />
<path stroke="#f1f1f1" d="M34 37h1" />
<path stroke="#f8f8f8" d="M36 37h1" />
</svg>